<svg width="36" height="36" viewBox="0 0 36 36" fill="none" xmlns="http://www.w3.org/2000/svg">
<g id="OBJECTS" clip-path="url(#clip0_301_149)">
<path id="Vector" d="M7.36999 13.05C7.34255 13.0979 7.31914 13.1481 7.29999 13.2C6.54995 14.9255 6.24103 16.8105 6.4011 18.6852C6.56116 20.5599 7.18517 22.3653 8.21688 23.9387C9.24859 25.5121 10.6556 26.8041 12.3111 27.6982C13.9665 28.5924 15.8185 29.0605 17.7 29.0605C19.5815 29.0605 21.4334 28.5924 23.0889 27.6982C24.7444 26.8041 26.1514 25.5121 27.1831 23.9387C28.2148 22.3653 28.8388 20.5599 28.9989 18.6852C29.1589 16.8105 28.85 14.9255 28.1 13.2C28.0884 13.1532 28.068 13.1091 28.04 13.0699C27.1419 11.0813 25.6891 9.39391 23.856 8.21033C22.0228 7.02675 19.887 6.39722 17.705 6.39722C15.5229 6.39722 13.3872 7.02675 11.554 8.21033C9.72084 9.39391 8.26808 11.0813 7.36999 13.0699V13.05ZM20.3 12.5099H15.1C15.77 9.93995 16.86 8.44995 17.7 8.44995C18.54 8.44995 19.63 9.93995 20.3 12.5099ZM26.97 17.7199C26.9722 18.7621 26.7963 19.797 26.45 20.7799H22.82C22.9415 19.7645 23.0016 18.7426 23 17.7199C22.9986 16.6704 22.9352 15.622 22.81 14.58H26.42C26.7869 15.5861 26.973 16.649 26.97 17.7199ZM20.92 17.7199C20.9234 18.7433 20.8566 19.7657 20.72 20.7799H14.72C14.5919 19.765 14.5285 18.7429 14.53 17.7199C14.5244 16.6696 14.5946 15.6202 14.74 14.58H20.74C20.8854 15.6202 20.9556 16.6696 20.95 17.7199H20.92ZM17.7 26.9799C16.85 26.9799 15.75 25.4599 15.08 22.8499H20.32C19.66 25.4599 18.56 26.9799 17.7 26.9799ZM8.43999 17.7199C8.43863 16.6501 8.62129 15.5879 8.97999 14.58H12.6C12.4748 15.622 12.4114 16.6704 12.41 17.7199C12.4084 18.7426 12.4685 19.7645 12.59 20.7799H8.95999C8.61365 19.797 8.43779 18.7621 8.43999 17.7199ZM14.14 9.16995C13.9909 9.45244 13.8574 9.74287 13.74 10.0399C13.4109 10.8389 13.1532 11.6655 12.97 12.5099H10.05C11.0563 11.0197 12.4787 9.85818 14.14 9.16995ZM9.98999 22.8499H12.99C13.177 23.7217 13.4414 24.5751 13.78 25.3999C13.8974 25.697 14.0309 25.9874 14.18 26.2699C12.4907 25.5625 11.0472 24.3729 10.03 22.8499H9.98999ZM21.27 26.2699C21.41 25.9999 21.54 25.7099 21.67 25.3999C22.0043 24.5736 22.2686 23.7206 22.46 22.8499H25.46C24.4441 24.3702 23.0047 25.5593 21.32 26.2699H21.27ZM25.36 12.5099H22.44C22.2568 11.6655 21.9991 10.8389 21.67 10.0399C21.54 9.72995 21.41 9.43995 21.27 9.16995C22.928 9.86373 24.3489 11.024 25.36 12.5099Z" fill="white"/>
<path id="Vector_2" d="M33.26 9.23007C33.3009 9.08702 33.3211 8.93885 33.32 8.79007V5.19006C33.32 4.76306 33.1504 4.35357 32.8485 4.05164C32.5465 3.7497 32.137 3.58008 31.71 3.58008H28.11C27.6821 3.58007 27.2716 3.74938 26.968 4.05103C26.6645 4.35267 26.4927 4.76215 26.49 5.19006V8.79007C26.4927 9.21891 26.6642 9.62944 26.9674 9.93268C27.2707 10.2359 27.6812 10.4074 28.11 10.4101H31.54C32.8122 12.7954 33.4444 15.4697 33.3749 18.1721C33.3054 20.8746 32.5366 23.5129 31.1435 25.8297C29.7504 28.1464 27.7806 30.0625 25.4263 31.3911C23.0719 32.7196 20.4134 33.4153 17.71 33.4101C16.4842 33.4076 15.2627 33.2633 14.07 32.9801C13.8048 32.9164 13.5252 32.9607 13.2926 33.1032C13.0601 33.2458 12.8937 33.4748 12.83 33.7401C12.7664 34.0053 12.8107 34.2849 12.9532 34.5175C13.0958 34.75 13.3248 34.9164 13.59 34.9801C14.9399 35.3003 16.3227 35.4613 17.71 35.4601C20.7828 35.4585 23.8024 34.6579 26.4723 33.1368C29.1423 31.6158 31.3708 29.4266 32.9391 26.7841C34.5074 24.1417 35.3616 21.1368 35.4179 18.0645C35.4742 14.9923 34.7305 11.9582 33.26 9.26007V9.23007ZM28.57 5.66006H31.25V8.33008H28.57V5.66006Z" fill="white"/>
<path id="Vector_3" d="M8.26003 26.29H4.63003C2.8715 23.5973 1.98528 20.4281 2.09193 17.2138C2.19859 13.9994 3.29295 10.896 5.2261 8.32578C7.15926 5.75552 9.83733 3.84324 12.8959 2.84915C15.9545 1.85506 19.2452 1.82741 22.32 2.76999C22.5852 2.85088 22.8717 2.82312 23.1165 2.69278C23.3612 2.56244 23.5441 2.34023 23.625 2.07501C23.7059 1.8098 23.6781 1.5233 23.5478 1.27856C23.4175 1.03383 23.1952 0.85088 22.93 0.769989C21.2378 0.254915 19.4789 -0.00790899 17.71 -0.0100098C14.4898 -0.00892906 11.3308 0.869637 8.57246 2.53125C5.81409 4.19286 3.56064 6.5747 2.05429 9.42084C0.547936 12.267 -0.154375 15.4698 0.0228255 18.6851C0.200026 21.9004 1.25004 25.0066 3.06003 27.67C3.05504 27.7433 3.05504 27.8168 3.06003 27.89V31.49C3.06003 31.917 3.22965 32.3265 3.53158 32.6284C3.83352 32.9304 4.24303 33.1 4.67003 33.1H8.27003C8.69702 33.1 9.10653 32.9304 9.40847 32.6284C9.7104 32.3265 9.88003 31.917 9.88003 31.49V27.89C9.88003 27.463 9.7104 27.0535 9.40847 26.7516C9.10653 26.4496 8.69702 26.28 8.27003 26.28L8.26003 26.29ZM7.80003 31.04H5.12003V28.41H7.82003L7.80003 31.04Z" fill="white"/>
</g>
<defs>
<clipPath id="clip0_301_149">
<rect width="35.43" height="35.43" fill="white"/>
</clipPath>
</defs>
</svg>
