<svg width="33" height="34" viewBox="0 0 33 34" fill="none" xmlns="http://www.w3.org/2000/svg">
<g id="OBJECTS" clip-path="url(#clip0_301_146)">
<path id="Vector" d="M16.31 0C11.9859 0.00529261 7.8405 1.72537 4.78293 4.78294C1.72536 7.84052 0.00529261 11.9859 0 16.31C0.0699096 19.0499 0.753344 21.7392 2 24.18C2.04448 24.3426 2.12448 24.4933 2.23423 24.6213C2.34398 24.7493 2.48075 24.8513 2.63468 24.9201C2.78862 24.9888 2.95588 25.0226 3.12444 25.0189C3.29299 25.0153 3.45863 24.9742 3.60942 24.8988C3.76021 24.8235 3.89241 24.7156 3.99648 24.5829C4.10054 24.4503 4.1739 24.2962 4.21126 24.1318C4.24861 23.9674 4.24904 23.7968 4.21251 23.6322C4.17598 23.4676 4.1034 23.3132 4 23.18C2.89738 21.0669 2.28553 18.7323 2.21 16.35C2.21 13.5811 3.03108 10.8743 4.56942 8.57202C6.10776 6.26973 8.29427 4.47532 10.8524 3.4157C13.4106 2.35607 16.2255 2.07883 18.9413 2.61902C21.657 3.15921 24.1516 4.49258 26.1095 6.45052C28.0674 8.40845 29.4008 10.903 29.941 13.6187C30.4812 16.3345 30.2039 19.1494 29.1443 21.7076C28.0847 24.2657 26.2903 26.4522 23.988 27.9906C21.6857 29.5289 18.9789 30.35 16.21 30.35C14.014 30.3328 11.8502 29.82 9.88 28.85C9.7503 28.7818 9.60817 28.7405 9.46213 28.7284C9.31608 28.7164 9.16911 28.7339 9.03 28.78L1.89 31.06C1.63076 31.1398 1.40886 31.3101 1.26482 31.54C1.12079 31.7698 1.06423 32.0438 1.10547 32.3119C1.14671 32.5799 1.28301 32.8242 1.48946 33.0002C1.69592 33.1761 1.95876 33.2718 2.23 33.27C2.34586 33.2894 2.46414 33.2894 2.58 33.27L9.42 31.13C11.5904 32.1298 13.9504 32.6516 16.34 32.66C18.5152 32.7139 20.6791 32.332 22.7045 31.5368C24.7298 30.7416 26.5756 29.5492 28.1331 28.0298C29.6906 26.5104 30.9283 24.6948 31.7734 22.6897C32.6185 20.6847 33.0538 18.5309 33.0538 16.355C33.0538 14.1792 32.6185 12.0253 31.7734 10.0203C30.9283 8.01525 29.6906 6.19958 28.1331 4.68019C26.5756 3.1608 24.7298 1.9684 22.7045 1.17322C20.6791 0.378031 18.5152 -0.00386957 16.34 0.0500031L16.31 0Z" fill="white"/>
<path id="Vector_2" d="M13.09 13.5299C12.9724 13.6206 12.8739 13.7334 12.8 13.8621C12.7261 13.9908 12.6783 14.1328 12.6592 14.28C12.6402 14.4272 12.6503 14.5767 12.6891 14.7199C12.7278 14.8632 12.7944 14.9974 12.885 15.115C12.9756 15.2325 13.0885 15.331 13.2172 15.4049C13.3459 15.4788 13.4878 15.5267 13.635 15.5457C13.7822 15.5648 13.9317 15.5546 14.075 15.5159C14.2182 15.4771 14.3525 15.4106 14.47 15.32C14.8438 15.0836 15.147 14.7507 15.3477 14.3565C15.5483 13.9623 15.6389 13.5213 15.61 13.08C15.3459 12.1381 14.8588 11.2737 14.19 10.5599C13.6322 9.74665 12.87 9.09475 11.98 8.66995C11.4309 8.50168 10.8404 8.52997 10.31 8.74995C9.78447 8.9338 9.30313 9.22533 8.89674 9.60588C8.49036 9.98643 8.1679 10.4476 7.94998 10.96C7.7637 11.4617 7.68524 11.9971 7.7197 12.5313C7.75416 13.0654 7.90077 13.5863 8.14999 14.0599C9.27759 16.4863 10.875 18.6649 12.85 20.47C14.8635 22.2456 17.2086 23.605 19.75 24.47C20.2157 24.6359 20.7056 24.7237 21.2 24.73C21.7756 24.7331 22.3428 24.5921 22.85 24.32C23.3348 24.0483 23.7578 23.6786 24.0918 23.2343C24.4258 22.7901 24.6636 22.2812 24.79 21.74C24.9486 21.1882 24.9133 20.5988 24.69 20.07C24.1651 19.2301 23.4312 18.541 22.56 18.07C21.777 17.485 20.8646 17.0973 19.9 16.94C19.4595 16.9601 19.0325 17.0978 18.6632 17.3387C18.2939 17.5796 17.9959 17.9149 17.8 18.3099C17.6747 18.5654 17.6494 18.8585 17.7292 19.1316C17.809 19.4047 17.988 19.6381 18.2311 19.786C18.4742 19.9338 18.7638 19.9854 19.043 19.9307C19.3222 19.8759 19.5708 19.7187 19.74 19.49C19.7933 19.3933 19.857 19.3027 19.93 19.22C20.9334 19.6391 21.8493 20.2429 22.63 21C22.6333 21.0432 22.6333 21.0867 22.63 21.13C22.5203 21.6122 22.2305 22.0342 21.82 22.3099C21.6125 22.3966 21.3898 22.4412 21.165 22.4412C20.9401 22.4412 20.7175 22.3966 20.51 22.3099C18.2556 21.5499 16.1727 20.3539 14.38 18.79C12.6226 17.182 11.2018 15.2411 10.2 13.08C10.0915 12.8834 10.0232 12.6672 9.99917 12.444C9.97513 12.2208 9.99581 11.9951 10.06 11.7799C10.171 11.5594 10.3244 11.3628 10.5115 11.2015C10.6985 11.0402 10.9155 10.9174 11.15 10.84C11.1924 10.8275 11.2376 10.8275 11.28 10.84C12.1132 11.537 12.8114 12.3809 13.34 13.33L13.09 13.54V13.5299Z" fill="white"/>
</g>
<defs>
<clipPath id="clip0_301_146">
<rect width="32.61" height="33.27" fill="white"/>
</clipPath>
</defs>
</svg>
