<svg width="33" height="33" viewBox="0 0 33 33" fill="none" xmlns="http://www.w3.org/2000/svg">
<g id="OBJECTS" clip-path="url(#clip0_301_153)">
<path id="Vector" d="M16.09 0.0499222C11.875 0.154798 7.86787 1.90286 4.92382 4.92108C1.97977 7.93929 0.331909 11.9886 0.331909 16.2049C0.331909 20.4212 1.97977 24.4705 4.92382 27.4888C7.86787 30.507 11.875 32.255 16.09 32.3599C18.2453 32.4135 20.3895 32.0353 22.3965 31.2476C24.4034 30.4598 26.2324 29.2784 27.7757 27.773C29.3191 26.2676 30.5456 24.4685 31.3831 22.4818C32.2205 20.4951 32.6519 18.3609 32.6519 16.2049C32.6519 14.0489 32.2205 11.9147 31.3831 9.92803C30.5456 7.94133 29.3191 6.14227 27.7757 4.63684C26.2324 3.1314 24.4034 1.95002 22.3965 1.16226C20.3895 0.3745 18.2453 -0.00370599 16.09 0.0499222ZM16.09 30.4799C13.2742 30.4699 10.5243 29.6277 8.18586 28.0591C5.84746 26.4905 4.02496 24.2657 2.94752 21.6642C1.87007 19.0627 1.58577 16.2008 2.13036 13.4382C2.67494 10.6756 4.02409 8.13565 6.0082 6.13769C7.99231 4.13973 10.5228 2.77294 13.2816 2.20916C16.0403 1.64538 18.9041 1.90979 21.513 2.96911C24.1219 4.02844 26.3594 5.83543 27.9442 8.16287C29.529 10.4903 30.3904 13.2343 30.42 16.0499C30.4252 17.9337 30.0582 19.8 29.3401 21.5415C28.6219 23.2831 27.5667 24.8655 26.2352 26.1981C24.9036 27.5306 23.3218 28.5868 21.5808 29.3062C19.8398 30.0256 17.9737 30.3939 16.09 30.3899V30.4799Z" fill="white"/>
<path id="Vector_2" d="M16.09 5.67992C13.3679 5.76404 10.7854 6.9045 8.88966 8.85976C6.99389 10.815 5.93372 13.4315 5.93372 16.1549C5.93372 18.8783 6.99389 21.4948 8.88966 23.4501C10.7854 25.4053 13.3679 26.5458 16.09 26.6299C18.4162 26.6313 20.6799 25.8768 22.54 24.4799C22.6398 24.4061 22.7239 24.313 22.7872 24.2062C22.8504 24.0993 22.8917 23.9809 22.9084 23.8579C22.9252 23.7348 22.9172 23.6097 22.8848 23.4898C22.8525 23.37 22.7964 23.2578 22.72 23.1599C22.6453 23.0598 22.5513 22.9755 22.4436 22.9121C22.3359 22.8487 22.2167 22.8075 22.0928 22.7907C21.969 22.7739 21.843 22.782 21.7224 22.8145C21.6017 22.847 21.4887 22.9032 21.39 22.9799C19.8612 24.1274 18.0016 24.7485 16.09 24.7499C14.3934 24.742 12.737 24.2324 11.3293 23.2852C9.92167 22.3381 8.82561 20.9958 8.17909 19.4271C7.53257 17.8585 7.36449 16.1336 7.69599 14.4697C8.02749 12.8057 8.84377 11.277 10.0421 10.0759C11.2404 8.87482 12.7672 8.05503 14.4304 7.71969C16.0936 7.38434 17.8188 7.54841 19.3889 8.1913C20.9591 8.8342 22.304 9.92715 23.2543 11.3326C24.2047 12.7381 24.7182 14.3933 24.73 16.0899V17.0499C24.6952 17.5287 24.4805 17.9766 24.1289 18.3035C23.7774 18.6304 23.3151 18.8122 22.835 18.8122C22.355 18.8122 21.8927 18.6304 21.5411 18.3035C21.1896 17.9766 20.9748 17.5287 20.94 17.0499V12.3199C20.9536 12.1876 20.9394 12.054 20.8981 11.9276C20.8568 11.8012 20.7894 11.6849 20.7003 11.5862C20.6113 11.4875 20.5025 11.4085 20.381 11.3545C20.2595 11.3005 20.128 11.2726 19.995 11.2726C19.8621 11.2726 19.7306 11.3005 19.6091 11.3545C19.4876 11.4085 19.3788 11.4875 19.2897 11.5862C19.2006 11.6849 19.1333 11.8012 19.092 11.9276C19.0507 12.054 19.0364 12.1876 19.05 12.3199V12.3799C18.1909 11.7187 17.134 11.3664 16.05 11.3799C15.4289 11.3799 14.8138 11.5023 14.2399 11.74C13.6661 11.9777 13.1446 12.3261 12.7054 12.7653C12.2662 13.2045 11.9178 13.726 11.6801 14.2998C11.4424 14.8737 11.32 15.4888 11.32 16.1099C11.32 16.7311 11.4424 17.3461 11.6801 17.92C11.9178 18.4939 12.2662 19.0153 12.7054 19.4545C13.1446 19.8937 13.6661 20.2422 14.2399 20.4799C14.8138 20.7176 15.4289 20.8399 16.05 20.8399C16.7373 20.8399 17.4169 20.6946 18.0441 20.4137C18.6714 20.1328 19.2323 19.7226 19.69 19.2099C20.1482 19.8731 20.8064 20.3725 21.5684 20.6351C22.3305 20.8977 23.1565 20.9099 23.926 20.6698C24.6955 20.4297 25.368 19.9499 25.8455 19.3004C26.323 18.651 26.5803 17.866 26.58 17.0599V16.0499C26.5536 13.2764 25.432 10.6257 23.4595 8.67574C21.487 6.72574 18.8237 5.63451 16.05 5.63991L16.09 5.67992ZM16.09 18.9399C15.3342 18.9399 14.6092 18.6397 14.0748 18.1052C13.5403 17.5707 13.24 16.8458 13.24 16.0899C13.24 15.3341 13.5403 14.6091 14.0748 14.0747C14.6092 13.5402 15.3342 13.2399 16.09 13.2399C16.4643 13.2399 16.8349 13.3136 17.1807 13.4569C17.5265 13.6001 17.8406 13.81 18.1053 14.0747C18.3699 14.3393 18.5799 14.6535 18.7231 14.9993C18.8663 15.345 18.94 15.7157 18.94 16.0899C18.94 16.4642 18.8663 16.8348 18.7231 17.1806C18.5799 17.5263 18.3699 17.8405 18.1053 18.1052C17.8406 18.3698 17.5265 18.5798 17.1807 18.723C16.8349 18.8662 16.4643 18.9399 16.09 18.9399Z" fill="white"/>
</g>
<defs>
<clipPath id="clip0_301_153">
<rect width="32.3" height="32.3" fill="white"/>
</clipPath>
</defs>
</svg>
